<svg width="507" height="507" viewBox="0 0 507 507" fill="none" xmlns="http://www.w3.org/2000/svg">
<path d="M490.3 35.4C512.2 57.27 512.2 92.73 490.3 114.6L460.3 144.7L362.3 46.72L392.4 16.66C414.3 -5.21349 449.7 -5.21349 471.6 16.66L490.3 35.4ZM172.4 236.7L339.7 69.34L437.7 167.3L270.3 334.6C264.2 340.8 256.7 345.4 248.4 348.2L159.6 377.8C150.1 380.6 141.5 378.4 135 371.1C128.6 365.5 126.4 356 129.2 347.4L158.8 258.6C161.6 250.3 166.2 242.8 172.4 236.7ZM192 58.1C209.7 58.1 224 73.33 224 90.1C224 108.7 209.7 122.1 192 122.1H96C78.33 122.1 64 137.3 64 154.1V411C64 428.7 78.33 443 96 443H352C369.7 443 384 428.7 384 411V314.1C384 297.3 398.3 282.1 416 282.1C433.7 282.1 448 297.3 448 314.1V411C448 464 405 507 352 507H96C42.98 507 0 464 0 411V154.1C0 101.1 42.98 58.1 96 58.1H192Z" fill="#70B09B" fill-opacity="0.5"/>
</svg>
